solid inlet
 facet normal -1 0 0
  outer loop
   vertex 0 0 0
   vertex 0 0 1
   vertex 0 1 1
  endloop
 endfacet
 facet normal -1 0 0
  outer loop
   vertex 0 0 0
   vertex 0 1 1
   vertex 0 1 0
  endloop
 endfacet
endsolid inlet
solid outlet
 facet normal 1 0 0
  outer loop
   vertex 2 0 0
   vertex 2 1 0
   vertex 2 1 1
  endloop
 endfacet
 facet normal 1 0 0
  outer loop
   vertex 2 0 0
   vertex 2 1 1
   vertex 2 0 1
  endloop
 endfacet
endsolid outlet
solid walls
 facet normal 0 -1 0
  outer loop
   vertex 0 0 0
   vertex 2 0 0
   vertex 2 0 1
  endloop
 endfacet
 facet normal 0 -1 0
  outer loop
   vertex 0 0 0
   vertex 2 0 1
   vertex 0 0 1
  endloop
 endfacet
 facet normal 0 1 0
  outer loop
   vertex 0 1 0
   vertex 0 1 1
   vertex 2 1 1
  endloop
 endfacet
 facet normal 0 1 0
  outer loop
   vertex 0 1 0
   vertex 2 1 1
   vertex 2 1 0
  endloop
 endfacet
 facet normal 0 0 -1
  outer loop
   vertex 0 0 0
   vertex 0 1 0
   vertex 2 1 0
  endloop
 endfacet
 facet normal 0 0 -1
  outer loop
   vertex 0 0 0
   vertex 2 1 0
   vertex 2 0 0
  endloop
 endfacet
 facet normal 0 0 1
  outer loop
   vertex 0 0 1
   vertex 2 0 1
   vertex 2 1 1
  endloop
 endfacet
 facet normal 0 0 1
  outer loop
   vertex 0 0 1
   vertex 2 1 1
   vertex 0 1 1
  endloop
 endfacet
endsolid walls
