solid inlet
 facet normal -1 0 0
  outer loop
   vertex 0 0 0
   vertex 0 0 0.0025
   vertex 0 0.0025 0.0025
  endloop
 endfacet
 facet normal -1 0 0
  outer loop
   vertex 0 0 0
   vertex 0 0.0025 0.0025
   vertex 0 0.0025 0
  endloop
 endfacet
endsolid inlet
solid outlet
 facet normal 1 0 0
  outer loop
   vertex 0.005 0 0
   vertex 0.005 0.0025 0
   vertex 0.005 0.0025 0.0025
  endloop
 endfacet
 facet normal 1 0 0
  outer loop
   vertex 0.005 0 0
   vertex 0.005 0.0025 0.0025
   vertex 0.005 0 0.0025
  endloop
 endfacet
endsolid outlet
solid walls
 facet normal 0 -1 0
  outer loop
   vertex 0 0 0
   vertex 0.005 0 0
   vertex 0.005 0 0.0025
  endloop
 endfacet
 facet normal 0 -1 0
  outer loop
   vertex 0 0 0
   vertex 0.005 0 0.0025
   vertex 0 0 0.0025
  endloop
 endfacet
 facet normal 0 1 0
  outer loop
   vertex 0 0.0025 0
   vertex 0 0.0025 0.0025
   vertex 0.005 0.0025 0.0025
  endloop
 endfacet
 facet normal 0 1 0
  outer loop
   vertex 0 0.0025 0
   vertex 0.005 0.0025 0.0025
   vertex 0.005 0.0025 0
  endloop
 endfacet
 facet normal 0 0 -1
  outer loop
   vertex 0 0 0
   vertex 0 0.0025 0
   vertex 0.005 0.0025 0
  endloop
 endfacet
 facet normal 0 0 -1
  outer loop
   vertex 0 0 0
   vertex 0.005 0.0025 0
   vertex 0.005 0 0
  endloop
 endfacet
 facet normal 0 0 1
  outer loop
   vertex 0 0 0.0025
   vertex 0.005 0 0.0025
   vertex 0.005 0.0025 0.0025
  endloop
 endfacet
 facet normal 0 0 1
  outer loop
   vertex 0 0 0.0025
   vertex 0.005 0.0025 0.0025
   vertex 0 0.0025 0.0025
  endloop
 endfacet
endsolid walls
